<?xml version="1.0" encoding="UTF-8" standalone="no"?><!DOCTYPE svg PUBLIC "-//W3C//DTD SVG 1.1//EN" "http://www.w3.org/Graphics/SVG/1.1/DTD/svg11.dtd"><svg width="100%" height="100%" viewBox="0 0 4223 4224" version="1.1" xmlns="http://www.w3.org/2000/svg" xmlns:xlink="http://www.w3.org/1999/xlink" xml:space="preserve" xmlns:serif="http://www.serif.com/" style="fill-rule:evenodd;clip-rule:evenodd;stroke-linejoin:round;stroke-miterlimit:2;"><path d="M2994.33,174.837c-9.626,-0.984 -18.709,0.442 -25.959,7.346c-1.333,1.304 -2.041,5.921 -1.375,6.341c6.709,4.225 13.583,8.292 20.75,11.659c69.958,32.825 138.375,68.541 204.667,108.341c126.084,75.667 242.625,163.767 350.458,263.73c129.667,120.225 242.125,254.749 337.75,403.337c54.875,85.221 103.829,173.721 145.459,266.242c7.042,15.7 15.166,30.921 22.792,46.366c35.745,63.855 51.916,135.159 77.412,202.925c53.295,141.663 75.878,289.346 88.587,439.317c31.417,370.875 -28.624,725.458 -184.546,1063.88c-93.745,203.417 -214.829,388.125 -369.496,550.5c-9.166,9.625 -18.374,19.292 -29.208,27.167c-176.25,80.333 -362.416,124.208 -553.541,150.083c-107.209,14.542 -214.917,18.792 -322.875,15.583c-32.917,-1 -53.584,9.542 -70.542,39.584c-64.625,114.416 -210.792,191.125 -367.625,157.667c-136.25,-29.042 -245.167,-142.501 -264.708,-287.167c-5.209,-38.292 -19.834,-58.292 -55.042,-72.708c-118.667,-48.626 -231.75,-108.501 -338.5,-179.751c-23.042,-15.375 -37.833,-14.249 -57.708,6.917c-79.792,85.125 -178.709,110.208 -288.251,74.5c-111.624,-36.417 -169.708,-121.417 -181.708,-235.625c-7.416,-70.417 16.125,-135.375 62.542,-188.583c25.042,-28.75 21.167,-46.208 -2.667,-73.125c-70.833,-80.042 -129.208,-169.584 -185.791,-260.042c-16.834,-26.917 -34.709,-34.875 -65.875,-27.375c-157.792,37.917 -301.917,10.042 -426.375,-97.375c-84.959,-73.333 -133.625,-167.292 -151.667,-278.292c-35.917,-221.645 109.416,-440.558 302.917,-501.133c30.958,-9.688 41.792,-27.358 41,-58.625c-1.5,-58.617 -0.667,-117.3 -0.417,-175.958c1.458,-303.75 72.792,-590.846 204.125,-864.109c96.042,-199.875 218.792,-380.979 372.333,-541.17c73.584,-41.342 153.292,-66.901 233.917,-89.829c161.542,-45.955 325.667,-72.926 494,-82.347c274.833,-15.379 539.875,27.025 799.541,113.325c12.584,4.184 25.042,9.167 38.5,8.972c3.417,-0.63 6.917,-1.384 10.167,-2.496c2.584,-1.817 5.25,-3.717 7.625,-5.846c1.834,-2.434 3.792,-4.842 5.584,-7.35c3.208,-5.204 5.958,-10.68 8.666,-16.179c2.75,-5.655 5.417,-11.325 7.875,-17.121c2.417,-6.121 4.75,-12.3 8.625,-17.705c1.334,-1.008 2.709,-1.991 4.042,-2.974c1.917,1.225 3.917,1.45 6.042,0.679c2.833,7.833 1.625,17.112 8.5,23.475c13.916,43.495 55.541,53.791 88.875,74.041c2.292,3.2 3.333,6.771 3.374,10.68c-1.166,3.787 -3.333,6.82 -6.541,9.129c-1.917,0.375 -3.792,0.741 -5.708,1.104Z" style="fill:#fff;"/><path d="M3626.29,3566.73c-2.5,5.041 -5.042,10.083 -7.542,15.125c-31.166,47.208 -75.041,82.75 -116.625,119.166c-143.791,125.959 -301.792,231.417 -474.541,314c-199.542,95.417 -409.001,157.125 -628.084,188.25c-91.041,12.917 -182.917,21.125 -273.791,20.709c-211.875,-1.042 -421.459,-27.167 -624.792,-91.625c-102.875,-32.583 -203.833,-69.833 -301.25,-116.375c-168.792,-84.542 -327.625,-184.25 -468.875,-310.5c-5.959,-5.292 -13.042,-9.084 -19.417,-13.834c-296.625,-269.041 -506.958,-593.083 -622.583,-977.375c-17.666,-58.625 -29.375,-118.791 -46.125,-177.708c-28.5,-153.458 -45.75,-307.875 -42.208,-464.233c6.25,-275.996 63.041,-540.963 171.541,-794.9c25.667,-60.121 55.292,-118.283 84.583,-176.559c117.292,-209.187 263.584,-395.849 441.25,-556.929c158.501,-143.725 335.459,-260.666 529.792,-350.854c18.625,-2.904 34.459,-22.1 55.709,-9.616c-1.209,2.358 -1.917,5.137 -3.667,7.012c-16.167,17.671 -31.208,36.35 -47.167,54.112c-68.625,76.458 -129.833,158.471 -185.292,244.738c-33.874,52.604 -66.707,105.891 -94.208,162.221c-14.625,29.929 -30.083,59.462 -44.666,89.412c-21.542,44.3 -40.584,89.642 -57.875,135.838c-14.459,38.662 -28.417,77.433 -40.667,116.829c-16.791,53.887 -37.125,120.588 -48.041,180.975c-5.917,32.633 -15.792,64.65 -20.084,97.441c-3.625,27.617 -12,54.659 -11,82.942c0.25,6.496 -2.167,13.059 -3.083,19.629c-1.5,10.513 -3.292,21.017 -3.959,31.584c-1.041,15.925 -1.25,31.725 -5.333,47.504c-2.958,11.379 -2.417,23.796 -2.458,35.754c-0.209,89.3 -0.209,178.604 -0.25,267.908c-0,10.663 0.5,21.33 0.416,31.988c-0.125,15.087 -4.249,20.487 -19.874,25.65c-29.084,9.584 -58.584,18.104 -85.584,32.946c-36.291,19.925 -71.125,41.866 -100.209,71.896c-20.333,21.029 -40.958,41.533 -58.499,65.366c-24,32.596 -40.75,68.571 -56.208,105.388c-9.793,23.333 -15.334,48.125 -21.251,72.708c-1.833,7.667 -2.458,15.75 -3,23.667c-0.916,13.25 -1.291,26.421 -4.583,39.583c-4.208,16.917 -3.708,34.292 0.291,51.462c1.542,6.455 3.084,13.001 3.543,19.58c3.458,52.541 19.583,101.583 41.041,149.083c12.666,28.042 31.042,52.75 49,77.5c8.583,11.833 18.25,22.917 27.625,34.125c4.291,5.083 8.75,10.167 13.792,14.417c34.625,29.208 69.916,57.833 110.791,77.792c32.25,15.749 66.084,27.999 101.083,36.791c23.375,5.917 46.875,9.584 71.042,8.708c6.667,-0.208 13.333,0.25 20.001,0.167c86.374,-1.083 62.624,4.625 161.041,-22.208c14.625,-3.959 21.958,-1.375 30.666,11.208c2.251,3.292 4.334,6.667 6.417,10.083c45,73.959 92.459,146.167 145.626,214.584c24.499,31.5 48.333,63.541 76.291,92.166c1.875,1.875 3.5,4.001 5.167,6.084c5.875,7.208 6.042,16.041 -1.126,21.125c-13.291,9.541 -22.208,22.583 -32.166,35.166c-26.958,34.209 -44.167,72.042 -51,115.375c-2.958,18.459 -7.625,36.709 -5.5,55.292c5.875,52.25 19.625,101.792 53.666,143.625c21.042,36.25 55.417,57.5 90.584,76.167c29.25,15.541 61.125,26.417 95.542,25.083c9.333,-0.333 18.708,-0.375 27.999,0.25c37.084,2.5 71.542,-8.083 103.959,-23.875c37.292,-18.208 71.125,-41.75 94.375,-77.666c2.833,-4.417 6.667,-8.292 10.541,-11.917c2.876,-2.709 6.626,-4.625 10.834,-2.375c5.833,3.125 11.875,6 17.333,9.708c43,29.167 87.542,55.708 132.542,81.667c54.292,31.375 110.792,58.291 166.958,85.875c26.209,12.875 53.834,22.958 80.792,34.375c7.333,3.125 14.834,6 21.875,9.708c6.125,3.25 9.791,8.833 10.917,15.833c0.416,2.625 0.916,5.334 0.708,7.917c-2.333,25.75 6.458,50 9.667,75c0.833,6.5 3.791,12.709 5.958,19c17.625,51.167 44.25,97.042 83.75,134.208c46.375,43.626 100.583,73.709 163.167,87.626c6.458,1.416 13.208,1.624 19.791,2.333c9.25,1.083 18.75,1.083 27.667,3.375c17.25,4.416 34,4.416 51.292,0.166c20.583,-5.041 42.25,-4.416 62.583,-11.541c27.583,-9.667 55.583,-17.875 80.25,-34.708c21.958,-15.042 44.583,-28.959 63.167,-48.542c23.041,-24.25 44.041,-49.792 58.875,-80.042c3.5,-7.167 7.541,-14.083 11.875,-20.792c3,-4.583 7.833,-7.416 13.375,-7.708c9.291,-0.5 18.624,-0.458 27.958,-0.458c57.333,-0.125 114.625,-0.084 171.958,-0.334c17.292,-0.041 34.584,0.334 51.5,-5.124c6.167,-1.959 13.167,-1.584 19.792,-1.834c25.25,-1 50.625,0.333 75.333,-7.291c6.125,-1.917 13.25,-0.626 19.876,-1.334c10.541,-1.125 21.041,-2.625 31.541,-4.208c5.25,-0.792 10.458,-3.125 15.625,-2.917c24.333,0.958 47.584,-6.125 70.833,-10.833c54.667,-11.042 109.292,-22.125 163.167,-36.792c75.833,-20.667 150.625,-44 223.375,-73.75c14.709,-6.042 29.916,-10.833 44.875,-16.208Z" style="fill:#b4b6b7;"/><path d="M1656.46,1239.48c-56.792,2.8 -109.5,-14.134 -160.833,-37.517c-46.834,-21.337 -86.126,-52.708 -119.959,-90.833c-30.292,-34.109 -52.334,-73.354 -68.667,-116.034c-10.5,-27.504 -17.375,-56.079 -21.291,-84.791c-4.25,-31.433 -5.167,-63.642 1.666,-95.296c1.375,-6.483 2.501,-13.025 3.75,-19.537c8.084,-42.017 22.125,-81.43 43.875,-118.784c15.625,-26.762 36.25,-49.121 54.25,-73.704c8.792,-11.975 22.334,-18.746 33.625,-27.984c47.209,-38.583 100.792,-63.808 160.209,-76.924c3.875,-0.859 7.791,-2.196 11.708,-2.192c18.75,0.025 36.917,-3.837 55.25,-7.271c18.917,-3.554 36.583,5.904 55.167,6.184c29.75,0.445 57.875,9.054 85.041,19.458c23.5,8.996 45.959,21.108 67.792,33.783c18.292,10.646 35.292,23.633 50.125,39.209c21.083,22.112 44.042,42.275 60.792,68.47c31.166,48.854 53.833,100.567 59.416,158.921c1.25,13.158 5.375,26.1 6.042,39.25c1.042,19.875 1.625,39.975 -5.5,59.213c-0.583,35.383 -15.459,67.058 -25.917,99.866c-0.791,2.534 -1.625,5.1 -2.791,7.463c-28.209,56.654 -64.125,106.908 -116.625,144.07c-31.626,22.409 -64.542,41.871 -101.584,54.205c-40.625,13.533 -81.833,22.754 -125.541,20.775Z" style="fill:#b4b6b7;"/><path d="M2385.71,3334.4c29.541,0.791 51.75,1.249 74.208,6.958c38.458,9.75 71.708,28.5 101.834,52.917c31.416,25.416 52.791,52.249 69.041,86.958c8.917,19.125 15.083,39.833 20.208,60.375c3.542,14.041 7.959,28 8.167,43c1.166,89.583 -33,163.333 -100,221.625c-27.333,23.791 -60,38.958 -95.209,48.875c-35.291,9.958 -71.333,11.708 -106.916,7.333c-34.167,-4.208 -68.125,-12.5 -97.208,-33.333c-15.126,-10.834 -32,-19.667 -45.667,-32.084c-44.625,-40.625 -73.709,-90.458 -83.417,-150.666c-2.333,-14.417 -7.291,-28.209 -7.041,-43.25c0.416,-29.584 5.958,-58.292 15.333,-85.959c20.75,-61.291 57.625,-110.5 112.958,-145.208c27.459,-17.25 57.834,-27.5 88.875,-34.792c16.584,-3.916 34.458,-2.249 44.834,-2.749Z" style="fill:#b4b6b7;"/><path d="M2307.38,2495.11c-64.5,4.583 -115.541,-23.084 -159.458,-67.542c-8.459,-8.583 -15.542,-18.125 -21.125,-28.833c-12.875,-24.75 -25.583,-49.25 -31.042,-77.292c-4.916,-25.246 -6.125,-49.917 -0.208,-74.917c1.542,-6.458 2.708,-13 4.25,-19.458c12.208,-51.708 43.291,-90.625 84.625,-121.842c25.792,-19.471 54.792,-31.829 87.583,-35.425c14.375,-1.579 28.25,-6.479 43.209,-5.975c18.875,0.638 36.625,6.304 54.458,11.071c32.667,8.729 60.208,26.009 85,49.671c31.792,30.417 52.958,66.084 64.792,107.917c1.416,5.083 3.041,10.291 3.333,15.5c1.875,33.25 3.125,66.541 -7.875,98.708c-9.5,27.792 -21.334,54.458 -42.458,75.833c-3.75,3.75 -7.625,7.417 -11.167,11.375c-27.542,31.042 -63.75,47 -102.333,58.834c-3.792,1.166 -7.75,2.208 -11.667,2.291c-13.292,0.292 -26.584,0.084 -39.917,0.084Z" style="fill:#b4b6b7;"/><path d="M1210.08,3224.27c-3.125,-51.208 19.166,-92.791 49.25,-131.375c10.833,-13.916 25.541,-23.624 40.417,-32.041c37.666,-21.292 78.207,-35 121.957,-28.209c66.917,10.459 118.668,44.5 150.292,105.75c8.542,16.5 14.833,34.042 15.875,53.084c0.417,7.916 2.125,15.75 3.292,23.625c0.375,2.583 1.625,5.291 1.208,7.791c-4.875,29.959 -5.791,61.042 -21.5,88.25c-15.374,26.626 -33.916,50.042 -60.083,68c-25.875,17.792 -53.75,29.209 -83.958,34.417c-20.875,3.625 -42.167,3.042 -63.334,-1.917c-24.875,-5.833 -47.666,-15.125 -69.375,-28.791c-44.625,-28.042 -67.249,-70.542 -80.791,-119c-3.5,-12.5 -2.292,-26.375 -3.25,-39.584Z" style="fill:#b4b6b7;"/><path d="M2931.75,617.295c-1.875,60.559 -27.416,107.525 -81.166,136.825c-19.792,10.78 -41.709,17.655 -64.292,20.267c-14.542,1.679 -28.958,0.375 -43.291,-4.558c-18.792,-6.484 -37.584,-11.942 -54.834,-22.963c-29.417,-18.821 -48.167,-44.888 -60.583,-76.813c-11.542,-29.629 -10.334,-60.179 -6.667,-90.566c1.375,-11.438 8.125,-22.325 12.958,-33.229c17.875,-40.125 49.209,-65.15 89.917,-79.421c7.542,-2.638 15.375,-4.292 22.875,-7.029c14.25,-5.221 29.208,-5.688 43.375,-2.983c37.042,7.062 71.625,20.045 98.625,48.22c26.917,28.088 40.625,61.733 43.042,100.271c0.25,3.979 0.041,7.987 0.041,11.979Z" style="fill:#b4b6b7;"/><path d="M3810.12,2334.82c30.333,-1.667 57.25,11.25 78.75,34.958c23.834,26.292 32.584,58.459 24.625,92.501c-7.458,31.958 -26.249,58.333 -56.5,73.416c-27.166,13.542 -56.25,14.25 -84.792,4.083c-13.624,-4.874 -26.541,-11.874 -37.708,-21.75c-21.208,-18.666 -31.666,-43.5 -33.5,-70.083c-2.125,-31.292 8.542,-60.542 31.459,-82.875c11.166,-10.917 24.916,-19.625 39.916,-25.708c11.5,-4.667 23.417,-3.959 37.75,-4.542Z" style="fill:#b4b6b7;"/><path d="M2931.75,3016.36c-15.958,-0.292 -31.875,-0.167 -46.5,-8.542c-16.541,-9.417 -30.041,-22.125 -40,-38.083c-9.208,-14.792 -13.625,-31.625 -16.792,-48.667c-0.708,-3.875 -0.582,-8.041 0,-11.958c5.168,-32.917 19.375,-60.667 47.126,-80.209c12.166,-8.583 25.5,-14.208 40.791,-14.041c8,0.041 16,0.083 23.959,-0.417c22.583,-1.375 41.666,8 59.083,20.5c7.25,5.208 11.834,14.083 17.833,21.125c22.042,25.917 21.5,56.583 16.167,87.083c-3.25,18.584 -15.375,33.875 -29.042,46.75c-7.625,7.209 -17.166,12.459 -26.166,18.084c-14.292,8.958 -30.5,8.167 -46.459,8.375Z" style="fill:#b4b6b7;"/><path d="M1595.63,2617.52c0.333,32.167 -27.917,61.625 -60.792,61.375c-30.667,-0.208 -64.167,-25.249 -64.084,-63.625c0.084,-38.916 34.833,-63.416 64.334,-63.458c32.041,0 62.791,29.583 60.542,65.708Z" style="fill:#b5b8b8;"/><path d="M3063.33,1574.72c-1.083,-0.1 4.291,-0.008 9.499,0.946c9.417,1.729 17.667,6.25 24.001,13.404c15.25,17.337 15.583,49.484 1.499,67.05c-9.541,11.917 -23.333,18.154 -37.958,20.204c-18.292,2.575 -41.292,-12.562 -48.083,-29.612c-1.459,-3.7 -2.083,-7.746 -3.625,-11.413c-3.292,-7.779 -3.625,-15.367 -0.208,-23.199c1.625,-3.642 2.25,-7.697 3.792,-11.371c6.749,-16.275 18.708,-25.421 36.666,-26.001c2.667,-0.083 5.333,-0.008 14.417,-0.008Z" style="fill:#b5b8b8;"/><path d="M651.876,3279.27c-30.292,-2.416 -59.917,-13.124 -85.751,-33.083c-30.833,-23.791 -48,-56.333 -56.291,-93.667c-1.959,-8.916 -2.5,-18.708 -1.167,-27.708c6.125,-40.333 19.958,-76.708 52.708,-104c15.709,-13.042 33.084,-22.125 52.083,-28.333c10.042,-3.292 20.542,-5.208 30.959,-7.167c5.167,-0.958 10.666,-1.292 15.875,-0.666c45.375,5.458 84.042,23.541 112.208,60.791c9.708,12.833 16.5,27.333 21.542,42.458c3.333,10.042 5.291,20.542 7.333,30.959c1.001,5.166 1.75,10.708 0.917,15.833c-3.125,18.25 -5.875,36.583 -13.375,53.792c-17.458,40.083 -47.625,66.416 -88.042,81.458c-8.708,3.25 -17.708,5.792 -26.791,7.667c-6.417,1.333 -13.209,1.083 -22.208,1.666Z" style="fill:#fff;"/><path d="M387.959,1637.2c2.666,31.071 -29.292,53.125 -50.708,57.48c-29.376,5.974 -54.959,-10.4 -66.501,-31.971c-3.125,-5.805 -5.583,-11.967 -8,-18.1c-3.042,-7.605 -3.291,-15.563 -0.958,-23.317c5.958,-19.821 17.875,-35.175 35.917,-45.475c27.833,-15.896 62.583,-7.179 79.958,19.896c8.458,13.208 10.708,22.192 10.292,41.487Z" style="fill:#fff;"/><path d="M1683.67,3787.73c-0,3.958 0.417,7.958 -0.083,11.875c-2.625,21.416 -13.459,37 -33.833,44.875c-15.251,5.833 -31.126,4.833 -46.793,1.5c-3.666,-0.75 -7.416,-3.084 -10.291,-5.625c-5.916,-5.209 -12.208,-10.417 -16.625,-16.792c-15.25,-22.125 -19.833,-47.25 4.625,-76c3.333,-3.917 7.875,-7.083 12.458,-9.541c4.584,-2.459 10.084,-3.167 14.792,-5.417c17.583,-8.375 33.583,-3.625 48.708,5.958c19.667,12.417 27.25,26.542 27.042,49.167Z" style="fill:#fff;"/></svg>