<?xml version="1.0" encoding="UTF-8" standalone="no"?><!DOCTYPE svg PUBLIC "-//W3C//DTD SVG 1.1//EN" "http://www.w3.org/Graphics/SVG/1.1/DTD/svg11.dtd"><svg width="100%" height="100%" viewBox="0 0 5431 1795" version="1.1" xmlns="http://www.w3.org/2000/svg" xmlns:xlink="http://www.w3.org/1999/xlink" xml:space="preserve" xmlns:serif="http://www.serif.com/" style="fill-rule:evenodd;clip-rule:evenodd;stroke-linecap:round;stroke-linejoin:round;stroke-miterlimit:1.5;"><path d="M2.083,185.508c0,0 237.396,-251.411 577.618,-165.555c441.405,111.389 709.817,277.342 1034.5,186.051c324.688,-91.292 465.303,-144.953 786.137,-139.835c328.381,5.239 505.785,247.327 973.523,159.084c221.234,-41.738 353.931,-164.863 697.639,-130.397c253.997,25.469 471.99,161.094 602.028,175.892c220.127,25.051 319.686,-143.375 666.08,-150.3c186.855,-3.735 21.042,1231.33 21.042,1231.33l-5353.75,-19.211l-4.818,-1147.06Z" style="fill:url(#_Linear1);stroke:#000;stroke-width:4.17px;"/><path d="M6.543,597.55c-0,0 361.897,-380.36 694.251,-294.504c431.197,111.389 480.336,407.612 797.515,316.321c317.179,-91.291 293.731,-319.758 607.145,-314.64c320.787,5.239 466.7,526.727 923.621,438.484c216.118,-41.738 430.506,-269.022 766.265,-234.557c248.123,25.47 607.473,222.507 734.503,237.305c215.037,25.05 468.705,-381.169 807.089,-388.093c182.533,-3.736 6.275,1419.52 6.275,1419.52l-5331.96,-32.779l-4.706,-1147.06Z" style="fill:url(#_Linear2);stroke:#000;stroke-width:4.17px;"/><path d="M4.981,974.427c0,-0 568.747,-295.557 902.98,-235.485c433.634,77.937 361.79,313.7 680.762,249.825c318.972,-63.874 465.708,-214.472 780.894,-210.891c322.6,3.665 279.53,360.208 739.033,298.467c217.34,-29.204 368.889,-312.049 706.546,-287.935c249.526,17.821 433.292,275.375 561.041,285.728c216.252,17.527 545.561,-355.399 874.492,-268.052c252.635,67.086 86.929,986.713 86.929,986.713l-5327.94,-15.799l-4.733,-802.571Z" style="fill:url(#_Linear3);stroke:#000;stroke-width:4.17px;"/><defs><linearGradient id="_Linear1" x1="0" y1="0" x2="1" y2="0" gradientUnits="userSpaceOnUse" gradientTransform="matrix(5386.37,0,0,1459.63,32.5364,566.775)"><stop offset="0" style="stop-color:#2a2eff;stop-opacity:1"/><stop offset="1" style="stop-color:#201ebf;stop-opacity:1"/></linearGradient><linearGradient id="_Linear2" x1="0" y1="0" x2="1" y2="0" gradientUnits="userSpaceOnUse" gradientTransform="matrix(5261.8,0,0,1459.63,36.2916,978.817)"><stop offset="0" style="stop-color:#0074ff;stop-opacity:1"/><stop offset="1" style="stop-color:#1e6cbf;stop-opacity:1"/></linearGradient><linearGradient id="_Linear3" x1="0" y1="0" x2="1" y2="0" gradientUnits="userSpaceOnUse" gradientTransform="matrix(5291.54,0,0,1021.27,34.8982,1241.19)"><stop offset="0" style="stop-color:#ffbe00;stop-opacity:1"/><stop offset="1" style="stop-color:#ff6a00;stop-opacity:1"/></linearGradient></defs></svg>