<?xml version="1.0" encoding="UTF-8" standalone="no"?><!DOCTYPE svg PUBLIC "-//W3C//DTD SVG 1.1//EN" "http://www.w3.org/Graphics/SVG/1.1/DTD/svg11.dtd"><svg width="100%" height="100%" viewBox="0 0 5342 1781" version="1.1" xmlns="http://www.w3.org/2000/svg" xmlns:xlink="http://www.w3.org/1999/xlink" xml:space="preserve" xmlns:serif="http://www.serif.com/" style="fill-rule:evenodd;clip-rule:evenodd;stroke-linecap:round;stroke-linejoin:round;stroke-miterlimit:1.5;"><path d="M2.083,175.335c0,0 233.658,-240.592 573.879,-154.737c441.405,111.39 709.817,277.343 1034.51,186.051c324.687,-91.291 465.303,-144.953 786.136,-139.834c328.381,5.238 505.786,247.327 973.523,159.084c221.235,-41.738 353.932,-164.863 697.639,-130.398c253.997,25.47 471.991,161.095 602.028,175.893c220.127,25.05 320.204,-125.504 665.624,-152.37c5.206,-0.405 -0,1233.91 -0,1233.91l-5333.33,-33.548l0,-1144.05Z" style="fill:url(#_Linear1);stroke:#000;stroke-width:4.17px;"/><path d="M2.083,590.524c0,0 362.619,-372.688 694.972,-286.833c431.197,111.39 480.336,407.613 797.515,316.322c317.179,-91.291 293.732,-319.758 607.145,-314.64c320.787,5.239 466.701,526.727 923.621,438.484c216.118,-41.738 430.506,-269.022 766.265,-234.557c248.123,25.469 538.517,231.607 734.503,237.304c216.4,6.291 571.9,-405.43 809.313,-324.525c1.689,0.576 -0,1356.32 -0,1356.32l-5333.33,-87.621l0,-1100.26Z" style="fill:url(#_Linear2);stroke:#000;stroke-width:4.17px;"/><path d="M2.083,962.508c0,-0 567.906,-282.992 902.139,-222.92c433.634,77.937 361.791,313.699 680.762,249.825c318.972,-63.875 465.708,-214.472 780.894,-210.891c322.6,3.665 279.53,360.208 739.033,298.466c217.34,-29.203 368.889,-312.048 706.546,-287.934c249.526,17.82 358.419,290.476 603.123,288.864c354.985,-2.337 582.06,-230.318 920.837,-262.807c4.513,-0.432 3.405,963.292 3.405,963.292l-5336.02,-0.371l-0.721,-802.959l0,-12.565Z" style="fill:url(#_Linear3);stroke:#000;stroke-width:4.17px;"/><defs><linearGradient id="_Linear1" x1="0" y1="0" x2="1" y2="0" gradientUnits="userSpaceOnUse" gradientTransform="matrix(5386.37,0,0,1459.63,28.7977,567.42)"><stop offset="0" style="stop-color:#2a2eff;stop-opacity:1"/><stop offset="1" style="stop-color:#201ebf;stop-opacity:1"/></linearGradient><linearGradient id="_Linear2" x1="0" y1="0" x2="1" y2="0" gradientUnits="userSpaceOnUse" gradientTransform="matrix(5261.8,0,0,1459.63,32.5529,979.462)"><stop offset="0" style="stop-color:#0074ff;stop-opacity:1"/><stop offset="1" style="stop-color:#1e6cbf;stop-opacity:1"/></linearGradient><linearGradient id="_Linear3" x1="0" y1="0" x2="1" y2="0" gradientUnits="userSpaceOnUse" gradientTransform="matrix(5291.54,0,0,1021.27,31.1595,1241.84)"><stop offset="0" style="stop-color:#ffbe00;stop-opacity:1"/><stop offset="1" style="stop-color:#ff6a00;stop-opacity:1"/></linearGradient></defs></svg>