<?xml version="1.0" encoding="UTF-8" standalone="no"?><!DOCTYPE svg PUBLIC "-//W3C//DTD SVG 1.1//EN" "http://www.w3.org/Graphics/SVG/1.1/DTD/svg11.dtd"><svg width="100%" height="100%" viewBox="0 0 1250 1251" version="1.1" xmlns="http://www.w3.org/2000/svg" xmlns:xlink="http://www.w3.org/1999/xlink" xml:space="preserve" xmlns:serif="http://www.serif.com/" style="fill-rule:evenodd;clip-rule:evenodd;stroke-linejoin:round;stroke-miterlimit:2;"><path d="M1059.85,176.15l-869.708,0c-45.734,44.321 -84.742,95.546 -115.279,152.025l1100.26,-0c-30.533,-56.479 -69.537,-107.704 -115.275,-152.025Zm143.821,212.408l-1157.34,0c-17.262,42.188 -30.029,86.675 -37.741,132.884l1232.82,-0c-7.712,-46.209 -20.483,-90.696 -37.737,-132.884Zm-578.671,-388.558c-146.542,0 -281.292,50.458 -387.862,134.917l775.716,-0c-106.575,-84.459 -241.321,-134.917 -387.854,-134.917Zm0,1250.03c192.642,0 364.904,-87.187 479.554,-224.242l-959.121,0c114.65,137.055 286.917,224.242 479.567,224.242Zm624.488,-649.058l-1248.98,-0c-0.308,7.979 -0.504,15.979 -0.504,24.033c0,30.467 2.225,60.404 6.433,89.708l1237.13,0c4.209,-29.304 6.438,-59.241 6.438,-89.708c-0,-8.054 -0.204,-16.054 -0.512,-24.033Zm-1181.9,307l1114.81,-0c15.363,-30.196 28.333,-61.813 38.683,-94.596l-1192.17,-0c10.346,32.783 23.316,64.4 38.675,94.596Z" style="fill:#ffca05;fill-rule:nonzero;"/></svg>